<?xml version="1.0" encoding="utf-8"?>
<!-- Generator: Adobe Illustrator 25.0.1, SVG Export Plug-In . SVG Version: 6.00 Build 0)  -->
<svg version="1.1" id="Layer_1" xmlns="http://www.w3.org/2000/svg" xmlns:xlink="http://www.w3.org/1999/xlink" x="0px" y="0px"
	 viewBox="0 0 547 149" style="enable-background:new 0 0 547 149;" xml:space="preserve">
<style type="text/css">
	.st0{fill:#696A6D;}
	.st1{fill:#82CBAB;}
</style>
<path class="st0" d="M56.4,89.3h-32l-11,27.8H7.3L39,38h3.5l31,79h-6.2L56.4,89.3z M26.4,84.3h28.1L43.9,56c-0.9-2.2-2-5.3-3.2-9.3
	c-0.9,3.2-1.9,6.3-3.2,9.4L26.4,84.3z"/>
<path class="st0" d="M119.6,101.8c0,5.2-2,9.3-6,12.1c-4,2.8-9.7,4.2-17,4.2c-7.8,0-14-1.2-18.6-3.6v-5.8c5.8,2.9,12.2,4.4,18.6,4.4
	c5.8,0,10.2-1,13.2-2.9c2.8-1.6,4.5-4.5,4.5-7.7c0-2.9-1.3-5.6-3.6-7.4c-2.4-2-6.3-4-11.8-5.9c-5.9-2.1-10-3.9-12.3-5.5
	c-2.1-1.3-4-3.1-5.4-5.2c-1.2-2.1-1.9-4.5-1.8-7c-0.1-4.2,2-8.2,5.6-10.4c3.7-2.6,8.8-3.8,15.4-3.8c6.2,0,12.3,1.2,18,3.6l-2,4.8
	c-5-2.2-10.5-3.4-16-3.6c-4.8,0-8.6,0.8-11.4,2.4c-2.8,1.6-4.2,3.8-4.2,6.6c-0.1,2.8,1.1,5.5,3.3,7.3c2.2,1.8,6.4,3.9,12.7,6.1
	c4,1.3,7.9,3,11.5,5.1c2.2,1.3,4,3.1,5.4,5.2C119,97,119.6,99.4,119.6,101.8z"/>
<path class="st0" d="M170.9,101.8c0,5.2-2,9.3-6,12.1c-4,2.8-9.6,4.2-16.9,4.2c-7.8,0-14-1.2-18.6-3.6v-5.8
	c5.8,2.9,12.2,4.4,18.6,4.4c5.8,0,10.1-1,13.1-2.9s4.5-4.5,4.5-7.7c0-2.9-1.3-5.6-3.6-7.4c-2.4-2-6.3-4-11.8-5.9
	c-5.9-2.1-10-3.9-12.3-5.5c-2.1-1.3-4-3.1-5.4-5.2c-1.2-2.1-1.9-4.5-1.8-7c-0.1-4.2,2-8.1,5.5-10.4c3.7-2.6,8.8-3.8,15.4-3.8
	c6.2,0,12.3,1.2,18,3.6l-2,4.8c-5-2.2-10.5-3.4-16-3.6c-4.8,0-8.6,0.8-11.4,2.4s-4.2,3.8-4.2,6.6c-0.1,2.8,1.1,5.5,3.3,7.3
	c2.2,1.8,6.4,3.9,12.7,6.1c4,1.3,7.9,3,11.5,5.1c2.2,1.3,4,3.1,5.4,5.2C170.3,97.1,171,99.4,170.9,101.8z"/>
<path class="st0" d="M185.2,42.3c0-3.4,1.1-5.2,3.4-5.2c1,0,2,0.5,2.6,1.4c0.7,1.1,1,2.5,0.9,3.8c0.1,1.3-0.3,2.7-0.9,3.8
	c-0.6,0.9-1.6,1.4-2.6,1.4C186.4,47.5,185.2,45.8,185.2,42.3z M191.3,117H186V58.6h5.3L191.3,117z"/>
<path class="st0" d="M247.2,101.8c0,5.2-2,9.3-6,12.1c-4,2.8-9.6,4.2-17,4.2c-7.8,0-14-1.2-18.6-3.6v-5.8c5.8,2.9,12.1,4.4,18.6,4.4
	c5.8,0,10.2-1,13.2-2.9c3-1.9,4.5-4.5,4.5-7.7c0-2.9-1.3-5.6-3.6-7.4c-2.4-2-6.3-4-11.8-5.9c-5.9-2.1-10-3.9-12.3-5.5
	c-2.1-1.3-4-3.1-5.4-5.2c-1.2-2.1-1.9-4.5-1.8-7c-0.1-4.2,2-8.1,5.5-10.4c3.7-2.6,8.8-3.8,15.4-3.8c6.2,0,12.3,1.2,18,3.5l-2,4.8
	c-5-2.2-10.5-3.4-16-3.6c-4.8,0-8.6,0.8-11.4,2.4c-2.8,1.6-4.2,3.8-4.2,6.6c-0.1,2.8,1.1,5.5,3.3,7.3c2.2,1.8,6.4,3.9,12.7,6.1
	c4,1.3,7.9,3,11.6,5.1c2.2,1.3,4,3.1,5.4,5.2C246.6,97.1,247.2,99.4,247.2,101.8z"/>
<path class="st0" d="M277.7,113.4c3,0,5.9-0.2,8.8-0.9v4.3c-2.9,0.9-5.9,1.4-8.9,1.3c-5.2,0-9-1.4-11.4-4.1s-3.7-7.1-3.7-13V63.2
	h-8.7v-3.1l8.7-2.4l2.7-13.2h2.8v14.1h17.2v4.6h-17.2v37c0,4.5,0.8,7.8,2.4,10S274.3,113.4,277.7,113.4z"/>
<path class="st0" d="M334.7,117l-1.3-9.3h-0.4c-2.4,3.3-5.5,6-9.1,8c-3.4,1.6-7.2,2.4-11,2.3c-5.7,0-10.2-1.5-13.4-4.4
	c-3.2-2.9-4.8-7-4.8-12.2c-0.2-5.4,2.5-10.5,7.1-13.3c4.8-3.2,11.6-4.8,20.6-5l11.1-0.3V79c0-5.6-1.1-9.8-3.4-12.6
	c-2.3-2.8-5.9-4.3-10.9-4.3c-5.9,0.1-11.7,1.7-16.8,4.5l-2-4.6c5.9-2.9,12.4-4.4,19-4.5c6.4,0,11.2,1.7,14.4,5
	c3.2,3.3,4.8,8.5,4.8,15.6V117L334.7,117z M313.1,113.3c6.2,0,11.2-1.8,14.8-5.4c3.6-3.6,5.4-8.5,5.4-14.9v-5.8l-10.2,0.4
	c-8.2,0.4-14.1,1.7-17.6,3.9c-3.5,2.2-5.3,5.5-5.3,10.1c0,3.7,1.1,6.5,3.4,8.5S309,113.3,313.1,113.3z"/>
<path class="st0" d="M398.3,117V79.1c0-5.9-1.2-10.2-3.7-12.8c-2.5-2.7-6.3-4-11.5-4c-7,0-12.1,1.8-15.4,5.3
	c-3.3,3.5-4.9,9.3-4.9,17.2v32.3h-5.3V58.6h4.5l1,8h0.3c3.8-6.1,10.6-9.2,20.3-9.1c13.3,0,19.9,7.1,19.9,21.4V117L398.3,117z"/>
<path class="st0" d="M438,113.4c3,0,5.9-0.2,8.8-0.9v4.3c-2.9,0.9-5.9,1.4-8.9,1.3c-5.2,0-9-1.4-11.4-4.1s-3.7-7.1-3.7-13V63.2h-8.7
	v-3.1l8.7-2.4l2.7-13.2h2.7v14.1h17.2v4.6h-17.2v37c0,4.5,0.8,7.8,2.4,10C432.1,112.4,434.6,113.4,438,113.4z"/>
<path class="st1" d="M471.2,139.4l54.7-124h-75.1V6.6h85.9v6.6l-54.8,126.1H471.2z"/>
</svg>
